<svg height="416" viewBox="0 0 360 416" width="360" xmlns="http://www.w3.org/2000/svg"><g transform="scale(.351562 .351648)"><path d="m497.344 25.6627c13.829-1.0667 28.573.0127 42.368 1.296 69.443 6.4606 149.31 31.5859 203.803 76.3953 14.848 12.21 28.043 26.704 39.911 41.794 65.907 83.802 88.911 195.387 98.992 299.294 4.51 46.483 16.068 247.895-1.742 280.726-10.69 19.706-32.51 44.952-47.387 62.564-17.39 20.588-34.642 41.134-53.487 60.425-16.204 16.587-34.103 32.527-48.822 50.417 8.648-4.728 17.009-10.265 25.561-15.196 17.024-9.816 34.045-19.647 51.173-29.281 4.076-2.292 8.16-4.774 12.497-6.521 6.675 1.755 18.977 7.223 25.284 10.157 17.164 7.984 34.317 16.764 51.249 25.282 30.853 15.523 63.6 29.89 93.416 47.221-2.954 8.763-19.713 24.864-26.999 32.515-93.642 97.499-216.438 161.909-349.876 183.529-32.891 5.38-66.133 8.35-99.457 8.88-40.234-.73-80.35-4.6-119.984-11.56-118.468-20.92-228.43-75.45-316.7984-157.096-14.0777-13.022-41.1166-40.07-51.8441-55.408 28.3849-15.535 56.5229-29.564 85.4565-43.934 29.555-14.679 57.718-29.045 88.255-41.596 8.268 3.425 20.6 12.335 28.839 17.08 20.434 11.768 41.435 25.247 62.247 36.251-3.117-3.54-6.57-6.899-9.865-10.293-44.628-45.959-91.889-89.307-129.071-141.872-14.405-20.365-19.985-26.097-21.113-51.936-2.183-50.042-2.257-100.051-.235-150.116 5.482-142.985 20.1-302.171 118.057-414.892 18.972-21.823 42.298-39.0777 67.289-53.177 56.027-31.6085 118.365-47.4889 182.283-50.9483zm-71.761 905.8373c-18.339-17.286-38.635-35.64-56.677-52.565-89.928-84.357-142.4-164.927-143.562-291.681-.09-9.842-.812-23.983.314-33.82 7.567 7.873 14.583 16.493 22.043 24.436 25.748 27.414 56.718 52.969 96.382 53.347 7.957.076 13.987-.459 21.796-1.724 37.553-7.658 66.044-28.527 98.628-47.347 11.884-6.863 26.701-13.867 40.621-14.263 38.232.164 70.608 30.616 104.087 46.594 83.684 39.94 131.779.645 183.829-61.336 1.613 11.96-.032 34.792-.616 47.258-3.488 74.47-25.013 140.257-71.052 199.471-19.126 24.598-38.264 44.902-60.949 66.502-20.765 19.771-46.078 41.055-64.085 63.119 88.452-62.066 189.835-142.774 209.212-255.215 3.555-20.628 6.109-52.109 7.027-73.871 3.296-78.073-.809-177.81-46.113-244.557-16.126-23.761-42.99-43.323-71.37-47.949-9.97-1.625-19.93-1.567-30-.94-54.017 4.124-103.759 29.935-155.345 43.48-5.766 1.514-29.8-9.881-36.524-11.474-36.475-12.644-73.559-25.445-111.965-30.575-6.987-.934-14.443.069-21.11-.52-52.801-4.667-89.279 39.3-107.857 83.333-4.756 11.271-8.404 24.449-11.549 36.361-16.149 62.457-18.939 128.278-14.41 192.406 2.103 29.778 5.876 57.912 14.451 86.468 21.16 70.461 77.013 125.049 131.545 171.559 19.674 16.78 50.705 41.977 73.249 53.503zm74.828-705.216c-40.623 5.961-13.786-13.926-42.948-13.006-.052 5.181-.291 9.571 1.076 14.652 4.604.637 10.73.74 14.316 3.932 1.749 1.558-1.9 11.87 3.402 11.376 11.997-1.117 14.397 5.376 13.929 16.872-.279 6.856-11.663 9.026-16.456 16.535-1.224 10.674 2.997 14.351 14.18 8.625 2.61-1.336 1.58-10.214 1.402-13.263l27.269-.075c2.594.104 6.239.156 8.751.424 3.672 9.125 5.528 22.205 17.498 13.535 2.81-14.138-2.064-15.159-14.885-14.896-.132-6.008-.361-15.096.534-20.999 4.36-3.088 8.696-5.48 12.865-8.375 1.709-12.149 5.479-12.022 16.677-14.751 1.452-5.698 1.902-7.485 1.021-13.209l-.133-.894c-6.474-.24-8.768-.506-14.779 2.08-1.865 5.112-2.15 7.413-2.363 12.905-56.737 3.271-3.916-31.369-37.558-31.68l-3.113.556c-1.213 2.439-.467 24.718-.685 29.656z"/><path d="m654.196 374.02c34.497-3.738 65.401 19.93 94.204 34.945 9.627 5.018 30.685 3.927 39.102 12.139 4.453 4.345 2.312 23.398 1.937 29.974-2.374 1.818-4.718 3.676-7.03 5.574-11.475 9.547-9.813 18.032-9.815 31.715-.017 110.52-136.909 156.516-206.137 72.221-20.251-24.658-26.621-56.28-23.086-87.156-33.454-8.85-34.818-11.293-68.185-.487 1.943 52.682-13.68 95.24-64.257 119.751-6.283 2.911-12.784 5.326-19.443 7.223-73.078 20.152-142.824-29.431-145.406-105.637-.783-23.116 2.243-30.417-19.201-42.719-.205-7.324 1.095-26.135 1.872-33.596 11.6-3.031 30.084-4.075 40.697-8.759 7.738-3.415 21.54-12.002 29.34-16.667 26.752-15.998 58.414-23.065 89.269-15.691 39.001 9.321 60.259 37.318 79.817 69.259 3.663-1.672 7.38-3.223 11.146-4.651 25.479-9.613 46.759-7.028 71.284 4.098 6.06-11.28 12.017-22.271 20.684-31.833 22.38-24.693 50.251-37.795 83.208-39.703zm-287.944 204.029c48.666-3.207 85.532-45.242 82.368-93.918-3.163-48.676-45.159-85.584-93.831-82.463-48.732 3.124-85.692 45.191-82.524 93.928 3.167 48.737 45.26 85.664 93.987 82.453zm297.066-.493c48.554-3.221 85.366-45.099 82.339-93.673s-44.752-85.558-93.33-82.724c-48.853 2.85-86.086 44.869-83.042 93.717s45.204 85.919 94.033 82.68z"/><path d="m347.94 422.973c5.017-.384 12.558-.303 17.537-.173-6.23 7.997-16.747 18.211-24 25.348-12.47 12.267-25.066 24.405-37.786 36.411-2.765 2.914-5.65 6.271-8.355 9.286-1.534-17.041-.372-27.526 9.412-42.186 10.87-16.287 24.159-24.861 43.192-28.686z"/><path d="m333.71 471.77c1.947.498 2.118.474 3.647 1.695.627 1.387 1.108 2.071.599 3.759-2.276 7.556-23.458 28.724-28.738 32.349-2.294-2.511-4.407-6.507-5.881-9.558 2.708-2.811 8.574-7.608 11.73-10.479 6.318-5.812 12.533-11.735 18.643-17.766z"/><path d="m641.945 424.182c5.107-.539 14.178-.424 19.273-.158-8.453 13.282-44.129 45.253-56.909 56.385-3.895 3.187-7.732 6.442-11.511 9.766-1.022-17.127 1.594-29.818 12.507-43.783 8.137-10.413 23.267-20.778 36.64-22.21z"/><path d="m630.815 471.839c16.03 2.305-17.867 32.002-22.115 37.017-8.505-5.224-6.408-10.273-.336-16.618 6.724-7.026 14.639-14.624 22.451-20.399z"/></g></svg>