<svg xmlns="http://www.w3.org/2000/svg" viewBox="0 0 100 100" fill="currentColor">
  <!-- Picasso cubist face — frontal/profile hybrid -->
  <!-- Asymmetric head outline -->
  <path fill-rule="evenodd" d="M50 4C25 5 8 24 8 48c0 26 19 46 42 48 23-2 42-22 42-48C92 24 75 3 50 4zm0 8c20 1 34 16 34 36 0 22-15 38-34 40C30 86 16 70 16 48 16 28 30 13 50 12z"/>
  <!-- Left eye: diamond (frontal view), higher -->
  <path d="M34 36l8-6 8 6-8 6z"/>
  <!-- Right eye: circle (profile view), lower -->
  <circle cx="66" cy="48" r="7"/>
  <!-- Nose: angular wedge, off-center -->
  <path d="M48 34l8 20-16 0z"/>
  <!-- Vertical plane-dividing line -->
  <rect x="48" y="14" width="3" height="60" rx="1.5"/>
  <!-- Mouth: angular asymmetric -->
  <path d="M32 74l18-4 18 6-18 2z"/>
</svg>
